<?xml version="1.0" encoding="UTF-8" standalone="no"?>
<svg width="46px" height="46px" viewBox="0 0 46 46" version="1.1" xmlns="http://www.w3.org/2000/svg" xmlns:xlink="http://www.w3.org/1999/xlink">
    <!-- Generator: Sketch 3.7.2 (28276) - http://www.bohemiancoding.com/sketch -->
    <title>alarm</title>
    <desc>Created with Sketch.</desc>
    <defs></defs>
    <g id="Icons" stroke="none" stroke-width="1" fill="none" fill-rule="evenodd">
        <g id="Alarm" fill="#989898">
            <path d="M23,41.722 C14.111,41.722 6.9,34.511 6.9,25.622 C6.9,16.732 14.111,9.522 23,9.522 C31.89,9.522 39.1,16.732 39.1,25.622 C39.1,34.511 31.901,41.722 23,41.722 L23,41.722 Z M22.989,4.922 C11.546,4.922 2.3,14.191 2.3,25.622 C2.3,37.053 11.546,46.322 22.989,46.322 C34.431,46.322 43.7,37.053 43.7,25.622 C43.7,14.191 34.431,4.922 22.989,4.922 L22.989,4.922 Z M24.15,14.122 L20.7,14.122 L20.7,27.922 L31.614,34.489 L33.35,31.648 L24.15,26.197 L24.15,14.122 Z M13.524,3.519 L10.569,0 L0,8.867 L2.956,12.385 L13.524,3.519 Z M46,8.878 L35.432,0.011 L32.476,3.531 L43.045,12.397 L46,8.878 Z" id="alarm"></path>
        </g>
    </g>
</svg>