<?xml version="1.0" encoding="UTF-8" standalone="no"?>
<svg width="40px" height="31px" viewBox="0 0 40 31" version="1.1" xmlns="http://www.w3.org/2000/svg" xmlns:xlink="http://www.w3.org/1999/xlink">
    <!-- Generator: Sketch 3.7.2 (28276) - http://www.bohemiancoding.com/sketch -->
    <title>beds</title>
    <desc>Created with Sketch.</desc>
    <defs></defs>
    <g id="Icons" stroke="none" stroke-width="1" fill="none" fill-rule="evenodd">
        <g id="Bed">
            <g id="beds">
                <path d="M14,9 L14,7.99077797 C14,7.44358641 14.455761,7 15.0024733,7 L24.9975267,7 C25.5511774,7 26,7.45097518 26,7.99077797 L26,9.00000405 C26.0009761,9.00000135 26.0019525,9 26.0029293,9 L30.9970707,9 C31.5509732,9 32,9.44335318 32,10.0093689 L32,11.9906311 C32,12.5480902 31.5621186,13 30.9970707,13 L26.0029293,13 C25.8192815,13 25.6471623,12.9512635 25.499115,12.8654785 C25.3508953,12.9509987 25.1792345,13 24.9975267,13 L15.0024733,13 C14.8195898,13 14.6481443,12.9507926 14.5005355,12.8654306 C14.3550046,12.9510245 14.1869267,13 14.009222,13 L9.99077797,13 C9.44358641,13 9,12.5566468 9,11.9906311 L9,10.0093689 C9,9.45190985 9.45097518,9 9.99077797,9 L14,9 L14,9 Z M6,0.998502329 L6,12.0014977 C6,12.0005264 5.99947395,12 5.99815369,12 L34.0018463,12 C34.0005103,12 34,12.0005103 34,12.0014977 L34,0.998502329 C34,0.999473607 34.000526,1 34.0018463,1 L5.99815369,1 C5.99948971,1 6,0.999489704 6,0.998502329 L6,0.998502329 Z M0,28 L2,28 L2,31 L0,31 L0,28 L0,28 Z M38,28 L40,28 L40,31 L38,31 L38,28 Z M0,15.9962027 C0,13.7891609 1.79642476,12 4.00002553,12 L35.9999745,12 C38.2091276,12 40,13.7888304 40,15.9962027 L40,28 L0,28 L0,15.9962027 Z M5,0.998502329 C5,0.44704472 5.44736519,0 5.99815369,0 L34.0018463,0 C34.5531114,0 35,0.447489426 35,0.998502329 L35,12.0014977 C35,12.5529553 34.5526348,13 34.0018463,13 L5.99815369,13 C5.44688863,13 5,12.5525106 5,12.0014977 L5,0.998502329 L5,0.998502329 L5,0.998502329 Z" id="Rectangle-51" fill="#979797"></path>
                <path d="M2,16.997152 C2,15.3418707 3.34553934,14 5.00741988,14 L34.9925801,14 C36.6535323,14 38,15.3416228 38,16.997152 L38,26 L2,26 L2,16.997152 Z M15,8 L25,8 L25,12 L15,12 L15,8 Z M10,10 L14,10 L14,12 L10,12 L10,10 Z M26,10 L31,10 L31,12 L26,12 L26,10 Z" id="Combined-Shape" fill="#FFFFFF"></path>
            </g>
        </g>
    </g>
</svg>